**ABCDEFGHIJKLMNOPQRSTUVWXYZabcdefghijklmnopqrstuvwxyz**************************
**PARASOLID !"#$%&'()*+,-./:;<=>?@[\]^_`{|}~0123456789**************************
**PART1;
MC=AMD64;
MC_MODEL=Intel64 Family 6 Model 70 Stepping 1, GenuineIntel;
MC_ID=unknown;
OS=Windows_NT;
OS_RELEASE=unknown;
FRU=Parasolid Version 25.1, build 239,  8-18-2014;
APPL=SolidWorks 2014-2014292;
SITE=;
USER=unknown;
FORMAT=text;
GUISE=transmit;
KEY=makeProjectedPlanarWire;
FILE=makeProjectedPlanarWire.x_t;
DATE=Thu May 19 16:39:21 2016;
**PART2;
SCH=SCH_2501239_25001;
USFLD_SIZE=0;
**PART3;
**END_OF_HEADER*****************************************************************
T51 : TRANSMIT FILE created by modeller version 250123923 SCH_2501239_25001_1300
6189 0 12 29 CCCCCCCCCCCCCDI5 owner1040 0 CCCCCCCCCA16 index_map_offset0 0 1 dA9
 index_map82 0 A17 node_id_index_map82 0 A20 schema_embedding_map82 0 A5 child12
 0 A14 lowest_node_id0 0 1 dZ1 84 0 2 0 0 0 0 1e3 1e-8 0 3 0 1 0 3 1 4 5 6 7 8 9
 10 0 0 0 0 0 0 70 11 CI9 list_type0 0 1 uI10 notransmit0 0 1 lCCCDCCDI12 finger
_index0 0 1 dI12 finger_block1012 0 CZ2 0 4 T1 0 0 1 20 1 11 11 13 255 4 68 0 1
 0 12 0 0 8 12 50 255 5 2 0 12 0 0 13 +.0090358983848623 0 -.002 0 1 0 0 0 1 31
 255 6 42 0 9 14 0 0 +-622072580689757e-30 0 -.005 0 1 0 0 0 1 .0015 29 255 7 60
 0 10 15 0 .01206698729810782 0 -.00375 19 8 CCCCCCCA5 owner12 0 Z8 67 0 1 0 0 4
 V0 16 255 9 41 0 ?16 0 17 6 0 0 1 18 255 10 58 0 18 0 19 7 1395637041635234e-21
 1 17 255 18 0 0 0 0 10 20 21 0 22 +18 19 55 0 23 10 24 15 1395637041635234e-21
 1 17 23 0 25 22 26 19 27 28 29 30 -18 24 52 0 26 19 31 32 1395637041635234e-21
 1 29 15 57 0 19 32 7 .00303108891324547 0 -.01940063509461095 29 32 54 0 24 33
 15 -.003031088913245225 0 -.019400635094611 29 33 51 0 31 34 32 -.0120669872981
0768 0 -.003749999999999955 18 31 49 0 35 24 36 33 1395637041635234e-21 1 29 34
 48 0 36 37 33 -.00903589838486223 0 .001499999999999954 18 36 46 0 38 31 39 34
 1395637041635234e-21 1 29 37 45 0 39 0 34 .0090358983848623 0 .0015 18 39 43 0
 20 36 0 37 1395637041635234e-21 1 17 20 0 25 38 22 39 18 21 40 41 -15 255 25 7
 0 20 12 42 17 38 0 25 35 20 36 41 43 44 45 -17 22 0 25 20 23 10 30 17 46 0 -16
 21 23 0 1395637041635234e-21 18 43 47 0 0 0 1 133 255 40 8 0 20 0 48 0 +48 .012
06698729810782 0 -.00375 .0090358983848623 0 .0015 0 1 17 41 0 0 0 0 39 38 43 0
 0 +16 43 26 0 1395637041635234e-21 41 49 21 0 0 0 1 16 49 29 0 1395637041635234
e-21 45 50 43 0 0 0 1 17 45 0 0 0 0 36 35 49 0 0 +16 50 32 0 1395637041635234e-2
1 51 28 49 0 0 0 1 17 51 0 0 0 0 31 26 50 0 0 +16 28 35 0 1395637041635234e-21 2
7 17 50 0 0 0 1 17 27 0 0 0 0 24 23 28 0 0 +16 17 38 0 1395637041635234e-21 30 9
 28 0 0 0 1 17 30 0 0 0 0 19 22 17 0 0 +17 26 0 25 23 35 24 51 50 52 27 -17 35 0
 25 26 38 31 45 49 53 51 -133 52 14 0 26 54 55 0 +55 -.01206698729810768 0 -.003
74999999999995 -.00303108891324535 0 -.01940063509461105 0 1 137 255 54 13 0 1 5
3 52 56 +5 57 0 ?137 55 15 0 1 52 29 58 +5 59 0 ?133 29 16 0 23 55 60 0 +60 -.00
3031088913245225 0 -.019400635094611 .003031088913245595 0 -.019400635094611 0 1
 141 255 58 52 58 58 55 134 255 59 0 0 0 0 0 0 +61 62 136 255 61 1 2 2 2 5 FFF1
 63 64 65 135 255 62 2 0 45 255 4 63 -.00174999999999995 -.02110288568297 -.0174
0063509461105 -.01206698729810764 127 255 2 64 2 2 128 255 2 65 0 1 137 60 17 0
 1 29 46 66 +5 67 0 ?133 46 18 0 22 60 68 0 +68 .00303108891324547 0 -.019400635
09461095 .01206698729810782 0 -.00375 0 1 141 66 29 66 66 60 134 67 0 0 0 0 0 0
 +69 70 136 69 2 17 2 9 5 FFF1 71 72 73 135 70 2 0 45 34 71 -.017400635094611 -.
01206698729810752 -.01779944309345435 -.01183673539262032 -.0181255088287639 -.0
1151077211901492 -.01845099435999595 -.0111853888671658 -.0186817240078565 -.010
78589838486204 -.0189119035060207 -.01038736044406976 -.01903137548662265 -.0099
417650427209 -.01915056259930825 -.00949723211504058 -.01915063509461095 -.00903
589838486212 -.01915070741705645 -.00857566465468551 -.0190313754866227 -.008130
03172700333 -.01891232809017065 -.0076854613624663 -.0186817240078565 -.00728589
838486219 -.01845166977583995 -.00688728812162449 -.0181255088287639 -.006561024
6507093 -.01779992766325905 -.00623534114361108 -.017400635094611 -.006004809471
6167 127 9 72 3 2 2 2 2 2 2 2 3 128 9 73 0 .125 .25 .375 .5 .625 .75 .875 1 137
 68 19 0 1 46 14 74 +5 75 0 ?31 14 22 0 47 68 6 0 +-110202382932104e-29 0 -.01 0
 1 0 0 0 1 .0023 141 74 46 74 74 68 134 75 0 0 0 0 0 0 +76 77 136 76 1 2 2 2 5 F
FF1 78 79 80 135 77 2 0 45 4 78 -.01740063509461095 -.00600480947161683 -.001750
000000000025 .003031088913245535 127 2 79 2 2 128 2 80 0 1 16 47 21 0 ?81 21 0 1
4 0 0 1 17 81 0 82 81 81 0 83 47 0 0 +15 82 6 0 81 12 25 17 83 0 0 0 0 0 81 47 0
 0 -14 255 12 1 84 ?0 0 82 4 5 -0 0 0 0 4 81 255 1 84 72 85 12 0 0 0 0 86 80 255
 1 85 87 88 9000 1 1 1 1 1 1 1 1 0 FFFFTFTFFFFFFF1 82 255 1 86 -333709074 79 255
 14 88 SWEntUnchanged133 53 12 0 35 89 54 0 +54 -.00903589838486223 0 .001499999
999999954 -.01206698729810772 0 -.00375 0 1 141 56 53 56 56 54 134 57 0 0 0 0 0
 0 +90 91 136 90 2 17 2 9 5 FFF1 92 93 94 135 91 2 0 45 34 92 .00349999999999995
5 -.0180717967697245 .003499999999999955 -.01853230058070295 .003380740392011695
 -.01897766342758335 .00326169299555823 -.0194222337921231 .003031088913245495 -
.0198217967697245 .002801034681227685 -.02022040703296425 .00247487373415288 -.0
205466705038774 .00214949048229662 -.02087215603511515 .001749999999999975 -.021
10288568297 .001351462059198208 -.0213330651811382 .00090586665785881 -.02145253
71617362 .000461333730173342 -.0215717242744218 433680868994202e-33 -.0215717967
697245 -.000460233730177151 -.02157186909217 -.000905866657858809 -.021452537161
7362 -.001350707431351794 -.02133341735496445 -.001749999999999975 -.02110288568
297 127 9 93 3 2 2 2 2 2 2 2 3 128 9 94 0 .125 .25 .375 .5 .625 .75 .875 1 137 8
9 11 0 1 44 53 95 +5 96 0 ?133 44 10 0 38 48 89 0 +89 .0090358983848623 0 .0015
 -.00903589838486223 0 .0015 0 1 141 95 44 95 95 89 134 96 0 0 0 0 0 0 +97 98 13
6 97 1 2 2 2 5 FFF1 99 100 101 135 98 2 0 45 4 99 .0035 0 .0035 -.01807179676972
45 127 2 100 2 2 128 2 101 0 1 137 48 9 0 1 40 44 102 +5 103 0 ?141 102 40 102 1
02 48 134 103 0 0 0 0 0 0 +104 105 136 104 2 17 2 9 5 FFF1 106 107 108 135 105 2
 0 45 34 106 -.00175 .00303108891324553 -.001351192001153656 .003261340818734455
 -.000905866657858843 .00338074039201174 -.000461333730170543 .0034999275046988
 -1691355389077385e-32 .0035 .000460233730185117 .003500072322444065 .0009058666
5785881 .00338074039201175 .001350437022400876 .003261692995557575 .00175 .00303
1088913245545 .002148610263243735 .00280103468122482 .002474873734152915 .002474
873734152925 .00280035926539034 .002149490482295875 .003031088913245535 .00175 .
00326126841141248 .001351462059201674 .003380740392011745 .000905866657858826 .0
035 .000461063343985843 .0035 0 127 9 107 3 2 2 2 2 2 2 2 3 128 9 108 0 .125 .25
 .375 .5 .625 .75 .875 1 15 42 20 0 16 12 0 17 16 0 42 16 16 0 109 9 0 0 +17 109
 0 0 0 0 0 16 9 0 0 -141 13 48 110 111 5 141 110 68 112 13 5 141 111 89 13 113 5
 141 113 54 111 114 5 141 114 55 113 112 5 141 112 60 114 110 5 74 4 CI16 index_
map_offset0 0 1 dCCZ20 11 1 0 0 84 0 0 0 0 0 0 0 0 0 0 0 0 0 0 0 0 0 0 0 1 0 
